<svg xmlns="http://www.w3.org/2000/svg" version="1.1" xmlns:xlink="http://www.w3.org/1999/xlink" xmlns:svgjs="http://svgjs.com/svgjs" width="1440" height="889" preserveAspectRatio="none" viewBox="0 0 1440 889"><g mask="url(&quot;#SvgjsMask1798&quot;)" fill="none"><rect width="1440" height="889" x="0" y="0" fill="rgba(24, 31, 42, 1)"></rect><path d="M38.21 712.61L114.42 756.61L114.42 844.61L38.21 888.61L-38 844.61L-38 756.61zM266.85 52.61L343.06 96.61L343.06 184.61L266.85 228.61L190.63 184.61L190.63 96.61zM343.06 -79.39L419.27 -35.39L419.27 52.61L343.06 96.61L266.85 52.61L266.85 -35.39zM647.91 448.61L724.12 492.61L724.12 580.61L647.91 624.61L571.7 580.61L571.7 492.61zM1028.97 52.61L1105.18 96.61L1105.18 184.61L1028.97 228.61L952.76 184.61L952.76 96.61zM952.76 448.61L1028.97 492.61L1028.97 580.61L952.76 624.61L876.55 580.61L876.55 492.61zM1486.25 52.61L1562.46 96.61L1562.46 184.61L1486.25 228.61L1410.03 184.61L1410.03 96.61zM1410.03 184.61L1486.25 228.61L1486.25 316.61L1410.03 360.61L1333.82 316.61L1333.82 228.61zM1410.03 712.61L1486.25 756.61L1486.25 844.61L1410.03 888.61L1333.82 844.61L1333.82 756.61zM1486.25 844.61L1562.46 888.61L1562.46 976.61L1486.25 1020.61L1410.03 976.61L1410.03 888.61z" stroke="rgba(197, 165, 233, 1)" stroke-width="2"></path><path d="M17.36 155.68L70.19 186.18L70.19 247.18L17.36 277.68L-35.47 247.18L-35.47 186.18zM70.19 247.18L123.02 277.68L123.02 338.68L70.19 369.18L17.36 338.68L17.36 277.68zM70.19 430.18L123.02 460.68L123.02 521.68L70.19 552.18L17.36 521.68L17.36 460.68zM17.36 704.68L70.19 735.18L70.19 796.18L17.36 826.68L-35.47 796.18L-35.47 735.18zM70.19 796.18L123.02 826.68L123.02 887.68L70.19 918.18L17.36 887.68L17.36 826.68zM175.85 796.18L228.68 826.68L228.68 887.68L175.85 918.18L123.02 887.68L123.02 826.68zM228.68 704.68L281.51 735.18L281.51 796.18L228.68 826.68L175.85 796.18L175.85 735.18zM334.33 521.68L387.16 552.18L387.16 613.18L334.33 643.68L281.51 613.18L281.51 552.18zM387.16 613.18L439.99 643.68L439.99 704.68L387.16 735.18L334.33 704.68L334.33 643.68zM439.99 155.68L492.82 186.18L492.82 247.18L439.99 277.68L387.16 247.18L387.16 186.18zM439.99 338.68L492.82 369.18L492.82 430.18L439.99 460.68L387.16 430.18L387.16 369.18zM439.99 521.68L492.82 552.18L492.82 613.18L439.99 643.68L387.16 613.18L387.16 552.18zM439.99 887.68L492.82 918.18L492.82 979.18L439.99 1009.68L387.16 979.18L387.16 918.18zM598.48 247.18L651.31 277.68L651.31 338.68L598.48 369.18L545.65 338.68L545.65 277.68zM545.65 704.68L598.48 735.18L598.48 796.18L545.65 826.68L492.82 796.18L492.82 735.18zM545.65 887.68L598.48 918.18L598.48 979.18L545.65 1009.68L492.82 979.18L492.82 918.18zM651.31 887.68L704.14 918.18L704.14 979.18L651.31 1009.68L598.48 979.18L598.48 918.18zM809.8 64.18L862.62 94.68L862.62 155.68L809.8 186.18L756.97 155.68L756.97 94.68zM862.62 -27.32L915.45 3.18L915.45 64.18L862.62 94.68L809.8 64.18L809.8 3.18zM915.45 64.18L968.28 94.68L968.28 155.68L915.45 186.18L862.62 155.68L862.62 94.68zM862.62 887.68L915.45 918.18L915.45 979.18L862.62 1009.68L809.8 979.18L809.8 918.18zM1073.94 -27.32L1126.77 3.18L1126.77 64.18L1073.94 94.68L1021.11 64.18L1021.11 3.18zM1073.94 155.68L1126.77 186.18L1126.77 247.18L1073.94 277.68L1021.11 247.18L1021.11 186.18zM1073.94 338.68L1126.77 369.18L1126.77 430.18L1073.94 460.68L1021.11 430.18L1021.11 369.18zM1073.94 704.68L1126.77 735.18L1126.77 796.18L1073.94 826.68L1021.11 796.18L1021.11 735.18zM1179.6 -27.32L1232.43 3.18L1232.43 64.18L1179.6 94.68L1126.77 64.18L1126.77 3.18zM1179.6 338.68L1232.43 369.18L1232.43 430.18L1179.6 460.68L1126.77 430.18L1126.77 369.18zM1232.43 430.18L1285.26 460.68L1285.26 521.68L1232.43 552.18L1179.6 521.68L1179.6 460.68zM1179.6 521.68L1232.43 552.18L1232.43 613.18L1179.6 643.68L1126.77 613.18L1126.77 552.18zM1232.43 796.18L1285.26 826.68L1285.26 887.68L1232.43 918.18L1179.6 887.68L1179.6 826.68zM1338.09 613.18L1390.92 643.68L1390.92 704.68L1338.09 735.18L1285.26 704.68L1285.26 643.68zM1285.26 887.68L1338.09 918.18L1338.09 979.18L1285.26 1009.68L1232.43 979.18L1232.43 918.18zM1443.74 247.18L1496.57 277.68L1496.57 338.68L1443.74 369.18L1390.92 338.68L1390.92 277.68z" stroke="rgba(101, 226, 217, 1)" stroke-width="2"></path></g><defs><mask id="SvgjsMask1798"><rect width="1440" height="889" fill="#ffffff"></rect></mask></defs></svg>