<svg xmlns="http://www.w3.org/2000/svg" version="1.1" xmlns:xlink="http://www.w3.org/1999/xlink" xmlns:svgjs="http://svgjs.com/svgjs" width="1440" height="889" preserveAspectRatio="none" viewBox="0 0 1440 889"><g mask="url(&quot;#SvgjsMask1741&quot;)" fill="none"><rect width="1440" height="889" x="0" y="0" fill="rgba(24, 31, 42, 1)"></rect><path d="M10.56 525.5L86.77 569.5L86.77 657.5L10.56 701.5L-65.65 657.5L-65.65 569.5zM391.62 393.5L467.83 437.5L467.83 525.5L391.62 569.5L315.41 525.5L315.41 437.5zM391.62 921.5L467.83 965.5L467.83 1053.5L391.62 1097.5L315.41 1053.5L315.41 965.5zM467.83 261.5L544.05 305.5L544.05 393.5L467.83 437.5L391.62 393.5L391.62 305.5zM696.47 393.5L772.68 437.5L772.68 525.5L696.47 569.5L620.26 525.5L620.26 437.5zM620.26 525.5L696.47 569.5L696.47 657.5L620.26 701.5L544.05 657.5L544.05 569.5zM772.68 261.5L848.9 305.5L848.9 393.5L772.68 437.5L696.47 393.5L696.47 305.5zM772.68 789.5L848.9 833.5L848.9 921.5L772.68 965.5L696.47 921.5L696.47 833.5zM1001.32 129.5L1077.53 173.5L1077.53 261.5L1001.32 305.5L925.11 261.5L925.11 173.5zM1001.32 921.5L1077.53 965.5L1077.53 1053.5L1001.32 1097.5L925.11 1053.5L925.11 965.5zM1077.53 261.5L1153.75 305.5L1153.75 393.5L1077.53 437.5L1001.32 393.5L1001.32 305.5zM1229.96 525.5L1306.17 569.5L1306.17 657.5L1229.96 701.5L1153.75 657.5L1153.75 569.5zM1382.38 261.5L1458.6 305.5L1458.6 393.5L1382.38 437.5L1306.17 393.5L1306.17 305.5z" stroke="rgba(197, 165, 233, 1)" stroke-width="2"></path><path d="M42.3 540.87L95.13 571.37L95.13 632.37L42.3 662.87L-10.53 632.37L-10.53 571.37zM42.3 723.87L95.13 754.37L95.13 815.37L42.3 845.87L-10.53 815.37L-10.53 754.37zM95.13 815.37L147.96 845.87L147.96 906.87L95.13 937.37L42.3 906.87L42.3 845.87zM200.79 83.37L253.62 113.87L253.62 174.87L200.79 205.37L147.96 174.87L147.96 113.87zM147.96 357.87L200.79 388.37L200.79 449.37L147.96 479.87L95.13 449.37L95.13 388.37zM147.96 540.87L200.79 571.37L200.79 632.37L147.96 662.87L95.13 632.37L95.13 571.37zM306.45 83.37L359.27 113.87L359.27 174.87L306.45 205.37L253.62 174.87L253.62 113.87zM306.45 266.37L359.27 296.87L359.27 357.87L306.45 388.37L253.62 357.87L253.62 296.87zM306.45 449.37L359.27 479.87L359.27 540.87L306.45 571.37L253.62 540.87L253.62 479.87zM253.62 906.87L306.45 937.37L306.45 998.37L253.62 1028.87L200.79 998.37L200.79 937.37zM412.1 449.37L464.93 479.87L464.93 540.87L412.1 571.37L359.27 540.87L359.27 479.87zM412.1 815.37L464.93 845.87L464.93 906.87L412.1 937.37L359.27 906.87L359.27 845.87zM359.27 906.87L412.1 937.37L412.1 998.37L359.27 1028.87L306.45 998.37L306.45 937.37zM517.76 83.37L570.59 113.87L570.59 174.87L517.76 205.37L464.93 174.87L464.93 113.87zM517.76 815.37L570.59 845.87L570.59 906.87L517.76 937.37L464.93 906.87L464.93 845.87zM464.93 906.87L517.76 937.37L517.76 998.37L464.93 1028.87L412.1 998.37L412.1 937.37zM623.42 632.37L676.25 662.87L676.25 723.87L623.42 754.37L570.59 723.87L570.59 662.87zM570.59 723.87L623.42 754.37L623.42 815.37L570.59 845.87L517.76 815.37L517.76 754.37zM623.42 815.37L676.25 845.87L676.25 906.87L623.42 937.37L570.59 906.87L570.59 845.87zM676.25 540.87L729.08 571.37L729.08 632.37L676.25 662.87L623.42 632.37L623.42 571.37zM781.91 174.87L834.74 205.37L834.74 266.37L781.91 296.87L729.08 266.37L729.08 205.37zM781.91 723.87L834.74 754.37L834.74 815.37L781.91 845.87L729.08 815.37L729.08 754.37zM940.39 266.37L993.22 296.87L993.22 357.87L940.39 388.37L887.56 357.87L887.56 296.87zM993.22 723.87L1046.05 754.37L1046.05 815.37L993.22 845.87L940.39 815.37L940.39 754.37zM1098.88 -8.13L1151.71 22.37L1151.71 83.37L1098.88 113.87L1046.05 83.37L1046.05 22.37zM1151.71 83.37L1204.54 113.87L1204.54 174.87L1151.71 205.37L1098.88 174.87L1098.88 113.87zM1098.88 357.87L1151.71 388.37L1151.71 449.37L1098.88 479.87L1046.05 449.37L1046.05 388.37zM1098.88 540.87L1151.71 571.37L1151.71 632.37L1098.88 662.87L1046.05 632.37L1046.05 571.37zM1204.54 723.87L1257.37 754.37L1257.37 815.37L1204.54 845.87L1151.71 815.37L1151.71 754.37zM1204.54 906.87L1257.37 937.37L1257.37 998.37L1204.54 1028.87L1151.71 998.37L1151.71 937.37zM1363.03 449.37L1415.86 479.87L1415.86 540.87L1363.03 571.37L1310.2 540.87L1310.2 479.87zM1310.2 540.87L1363.03 571.37L1363.03 632.37L1310.2 662.87L1257.37 632.37L1257.37 571.37zM1415.86 -8.13L1468.68 22.37L1468.68 83.37L1415.86 113.87L1363.03 83.37L1363.03 22.37zM1468.68 83.37L1521.51 113.87L1521.51 174.87L1468.68 205.37L1415.86 174.87L1415.86 113.87zM1415.86 906.87L1468.68 937.37L1468.68 998.37L1415.86 1028.87L1363.03 998.37L1363.03 937.37z" stroke="rgba(101, 226, 217, 1)" stroke-width="2"></path></g><defs><mask id="SvgjsMask1741"><rect width="1440" height="889" fill="#ffffff"></rect></mask></defs></svg>