<svg xmlns="http://www.w3.org/2000/svg" version="1.1" xmlns:xlink="http://www.w3.org/1999/xlink" xmlns:svgjs="http://svgjs.com/svgjs" width="1440" height="560" preserveAspectRatio="none" viewBox="0 0 1440 560"><g mask="url(&quot;#SvgjsMask1538&quot;)" fill="none"><rect width="1440" height="560" x="0" y="0" fill="rgba(24, 31, 42, 1)"></rect><path d="M1226.46 123.71L1330.38 183.71L1330.38 303.71L1226.46 363.71L1122.53 303.71L1122.53 183.71zM1226.46 483.71L1330.38 543.71L1330.38 663.71L1226.46 723.71L1122.53 663.71L1122.53 543.71z" stroke="rgba(161, 103, 225, 1)" stroke-width="2"></path><path d="M89.81 88.21L145.23 120.21L145.23 184.21L89.81 216.21L34.38 184.21L34.38 120.21zM200.66 88.21L256.09 120.21L256.09 184.21L200.66 216.21L145.23 184.21L145.23 120.21zM145.23 184.21L200.66 216.21L200.66 280.21L145.23 312.21L89.81 280.21L89.81 216.21zM145.23 568.21L200.66 600.21L200.66 664.21L145.23 696.21L89.81 664.21L89.81 600.21zM256.09 376.21L311.52 408.21L311.52 472.21L256.09 504.21L200.66 472.21L200.66 408.21zM366.94 -7.79L422.37 24.21L422.37 88.21L366.94 120.21L311.52 88.21L311.52 24.21zM477.8 568.21L533.22 600.21L533.22 664.21L477.8 696.21L422.37 664.21L422.37 600.21zM754.93 472.21L810.36 504.21L810.36 568.21L754.93 600.21L699.51 568.21L699.51 504.21zM865.79 88.21L921.22 120.21L921.22 184.21L865.79 216.21L810.36 184.21L810.36 120.21zM921.22 184.21L976.64 216.21L976.64 280.21L921.22 312.21L865.79 280.21L865.79 216.21zM921.22 568.21L976.64 600.21L976.64 664.21L921.22 696.21L865.79 664.21L865.79 600.21zM1087.5 472.21L1142.92 504.21L1142.92 568.21L1087.5 600.21L1032.07 568.21L1032.07 504.21zM1142.92 -7.79L1198.35 24.21L1198.35 88.21L1142.92 120.21L1087.5 88.21L1087.5 24.21zM1198.35 88.21L1253.78 120.21L1253.78 184.21L1198.35 216.21L1142.92 184.21L1142.92 120.21zM1198.35 472.21L1253.78 504.21L1253.78 568.21L1198.35 600.21L1142.92 568.21L1142.92 504.21zM1364.63 568.21L1420.06 600.21L1420.06 664.21L1364.63 696.21L1309.21 664.21L1309.21 600.21z" stroke="rgba(101, 226, 217, 1)" stroke-width="2"></path></g><defs><mask id="SvgjsMask1538"><rect width="1440" height="560" fill="#ffffff"></rect></mask></defs></svg>