<svg xmlns="http://www.w3.org/2000/svg" version="1.1" xmlns:xlink="http://www.w3.org/1999/xlink" xmlns:svgjs="http://svgjs.com/svgjs" width="1440" height="889" preserveAspectRatio="none" viewBox="0 0 1440 889"><g mask="url(&quot;#SvgjsMask1554&quot;)" fill="none"><rect width="1440" height="889" x="0" y="0" fill="rgba(24, 31, 42, 1)"></rect><path d="M134.33 821.26L243.45 884.26L243.45 1010.26L134.33 1073.26L25.21 1010.26L25.21 884.26zM789.07 821.26L898.19 884.26L898.19 1010.26L789.07 1073.26L679.94 1010.26L679.94 884.26zM1225.56 65.26L1334.68 128.26L1334.68 254.26L1225.56 317.26L1116.43 254.26L1116.43 128.26zM1116.43 632.26L1225.56 695.26L1225.56 821.26L1116.43 884.26L1007.31 821.26L1007.31 695.26z" stroke="rgba(197, 165, 233, 1)" stroke-width="2"></path><path d="M184.23 405.66L270.83 455.66L270.83 555.66L184.23 605.66L97.62 555.66L97.62 455.66zM270.83 -44.34L357.44 5.66L357.44 105.66L270.83 155.66L184.23 105.66L184.23 5.66zM270.83 555.66L357.44 605.66L357.44 705.66L270.83 755.66L184.23 705.66L184.23 605.66zM357.44 705.66L444.04 755.66L444.04 855.66L357.44 905.66L270.83 855.66L270.83 755.66zM703.86 705.66L790.46 755.66L790.46 855.66L703.86 905.66L617.25 855.66L617.25 755.66zM617.25 855.66L703.86 905.66L703.86 1005.66L617.25 1055.66L530.64 1005.66L530.64 905.66zM877.07 405.66L963.67 455.66L963.67 555.66L877.07 605.66L790.46 555.66L790.46 455.66zM790.46 555.66L877.07 605.66L877.07 705.66L790.46 755.66L703.86 705.66L703.86 605.66zM790.46 855.66L877.07 905.66L877.07 1005.66L790.46 1055.66L703.86 1005.66L703.86 905.66zM1050.28 105.66L1136.88 155.66L1136.88 255.66L1050.28 305.66L963.67 255.66L963.67 155.66zM963.67 555.66L1050.28 605.66L1050.28 705.66L963.67 755.66L877.07 705.66L877.07 605.66zM1310.09 -44.34L1396.7 5.66L1396.7 105.66L1310.09 155.66L1223.49 105.66L1223.49 5.66zM1396.7 705.66L1483.3 755.66L1483.3 855.66L1396.7 905.66L1310.09 855.66L1310.09 755.66zM1569.91 405.66L1656.51 455.66L1656.51 555.66L1569.91 605.66L1483.3 555.66L1483.3 455.66zM1569.91 705.66L1656.51 755.66L1656.51 855.66L1569.91 905.66L1483.3 855.66L1483.3 755.66z" stroke="rgba(101, 226, 217, 1)" stroke-width="2"></path></g><defs><mask id="SvgjsMask1554"><rect width="1440" height="889" fill="#ffffff"></rect></mask></defs></svg>