<svg xmlns="http://www.w3.org/2000/svg" version="1.1" xmlns:xlink="http://www.w3.org/1999/xlink" xmlns:svgjs="http://svgjs.com/svgjs" width="1440" height="889" preserveAspectRatio="none" viewBox="0 0 1440 889"><g mask="url(&quot;#SvgjsMask1454&quot;)" fill="none"><rect width="1440" height="889" x="0" y="0" fill="rgba(24, 31, 42, 1)"></rect><path d="M414.51 854.78L523.63 917.78L523.63 1043.78L414.51 1106.78L305.38 1043.78L305.38 917.78zM741.87 665.78L851 728.78L851 854.78L741.87 917.78L632.75 854.78L632.75 728.78zM960.12 287.78L1069.24 350.78L1069.24 476.78L960.12 539.78L851 476.78L851 350.78zM1287.49 98.78L1396.61 161.78L1396.61 287.78L1287.49 350.78L1178.36 287.78L1178.36 161.78zM1396.61 665.78L1505.73 728.78L1505.73 854.78L1396.61 917.78L1287.49 854.78L1287.49 728.78zM1505.73 854.78L1614.85 917.78L1614.85 1043.78L1505.73 1106.78L1396.61 1043.78L1396.61 917.78z" stroke="rgba(197, 165, 233, 1)" stroke-width="2"></path><path d="M128.28 139.04L214.89 189.04L214.89 289.04L128.28 339.04L41.68 289.04L41.68 189.04zM128.28 739.04L214.89 789.04L214.89 889.04L128.28 939.04L41.68 889.04L41.68 789.04zM474.71 139.04L561.31 189.04L561.31 289.04L474.71 339.04L388.1 289.04L388.1 189.04zM474.71 439.04L561.31 489.04L561.31 589.04L474.71 639.04L388.1 589.04L388.1 489.04zM561.31 -10.96L647.91 39.04L647.91 139.04L561.31 189.04L474.7 139.04L474.7 39.04zM561.31 289.04L647.91 339.04L647.91 439.04L561.31 489.04L474.7 439.04L474.7 339.04zM647.91 739.04L734.52 789.04L734.52 889.04L647.91 939.04L561.31 889.04L561.31 789.04zM561.31 889.04L647.91 939.04L647.91 1039.04L561.31 1089.04L474.7 1039.04L474.7 939.04zM1167.55 139.04L1254.15 189.04L1254.15 289.04L1167.55 339.04L1080.94 289.04L1080.94 189.04zM1080.94 589.04L1167.55 639.04L1167.55 739.04L1080.94 789.04L994.33 739.04L994.33 639.04zM1254.15 -10.96L1340.76 39.04L1340.76 139.04L1254.15 189.04L1167.55 139.04L1167.55 39.04zM1340.76 439.04L1427.36 489.04L1427.36 589.04L1340.76 639.04L1254.15 589.04L1254.15 489.04zM1254.15 589.04L1340.76 639.04L1340.76 739.04L1254.15 789.04L1167.55 739.04L1167.55 639.04zM1340.76 739.04L1427.36 789.04L1427.36 889.04L1340.76 939.04L1254.15 889.04L1254.15 789.04zM1427.36 -10.96L1513.97 39.04L1513.97 139.04L1427.36 189.04L1340.76 139.04L1340.76 39.04zM1427.36 589.04L1513.97 639.04L1513.97 739.04L1427.36 789.04L1340.76 739.04L1340.76 639.04z" stroke="rgba(101, 226, 217, 1)" stroke-width="2"></path></g><defs><mask id="SvgjsMask1454"><rect width="1440" height="889" fill="#ffffff"></rect></mask></defs></svg>