<svg xmlns="http://www.w3.org/2000/svg" version="1.1" xmlns:xlink="http://www.w3.org/1999/xlink" xmlns:svgjs="http://svgjs.com/svgjs" width="1440" height="889" preserveAspectRatio="none" viewBox="0 0 1440 889"><g mask="url(&quot;#SvgjsMask1540&quot;)" fill="none"><rect width="1440" height="889" x="0" y="0" fill="rgba(24, 31, 42, 1)"></rect><path d="M269.05 -36.29L378.18 26.71L378.18 152.71L269.05 215.71L159.93 152.71L159.93 26.71z" stroke="rgba(197, 165, 233, 1)" stroke-width="2"></path><path d="M49.11 -39.55L135.72 10.45L135.72 110.45L49.11 160.45L-37.5 110.45L-37.5 10.45zM135.72 110.45L222.32 160.45L222.32 260.45L135.72 310.45L49.11 260.45L49.11 160.45zM135.72 710.45L222.32 760.45L222.32 860.45L135.72 910.45L49.11 860.45L49.11 760.45zM308.93 110.45L395.53 160.45L395.53 260.45L308.93 310.45L222.32 260.45L222.32 160.45zM222.32 860.45L308.93 910.45L308.93 1010.45L222.32 1060.45L135.72 1010.45L135.72 910.45zM395.53 560.45L482.14 610.45L482.14 710.45L395.53 760.45L308.93 710.45L308.93 610.45zM482.14 710.45L568.74 760.45L568.74 860.45L482.14 910.45L395.53 860.45L395.53 760.45zM568.74 -39.55L655.35 10.45L655.35 110.45L568.74 160.45L482.13 110.45L482.13 10.45zM655.35 110.45L741.95 160.45L741.95 260.45L655.35 310.45L568.74 260.45L568.74 160.45zM568.74 860.45L655.35 910.45L655.35 1010.45L568.74 1060.45L482.13 1010.45L482.13 910.45zM828.56 110.45L915.16 160.45L915.16 260.45L828.56 310.45L741.95 260.45L741.95 160.45zM915.16 -39.55L1001.77 10.45L1001.77 110.45L915.16 160.45L828.56 110.45L828.56 10.45zM915.16 260.45L1001.77 310.45L1001.77 410.45L915.16 460.45L828.56 410.45L828.56 310.45zM915.16 560.45L1001.77 610.45L1001.77 710.45L915.16 760.45L828.56 710.45L828.56 610.45zM915.16 860.45L1001.77 910.45L1001.77 1010.45L915.16 1060.45L828.56 1010.45L828.56 910.45zM1088.37 560.45L1174.97 610.45L1174.97 710.45L1088.37 760.45L1001.76 710.45L1001.76 610.45zM1174.97 710.45L1261.58 760.45L1261.58 860.45L1174.97 910.45L1088.37 860.45L1088.37 760.45zM1088.37 860.45L1174.97 910.45L1174.97 1010.45L1088.37 1060.45L1001.76 1010.45L1001.76 910.45zM1261.58 -39.55L1348.18 10.45L1348.18 110.45L1261.58 160.45L1174.97 110.45L1174.97 10.45zM1261.58 260.45L1348.18 310.45L1348.18 410.45L1261.58 460.45L1174.97 410.45L1174.97 310.45zM1348.18 710.45L1434.79 760.45L1434.79 860.45L1348.18 910.45L1261.58 860.45L1261.58 760.45zM1434.79 -39.55L1521.39 10.45L1521.39 110.45L1434.79 160.45L1348.18 110.45L1348.18 10.45zM1521.39 110.45L1608 160.45L1608 260.45L1521.39 310.45L1434.79 260.45L1434.79 160.45zM1434.79 560.45L1521.39 610.45L1521.39 710.45L1434.79 760.45L1348.18 710.45L1348.18 610.45zM1434.79 860.45L1521.39 910.45L1521.39 1010.45L1434.79 1060.45L1348.18 1010.45L1348.18 910.45z" stroke="rgba(101, 226, 217, 1)" stroke-width="2"></path></g><defs><mask id="SvgjsMask1540"><rect width="1440" height="889" fill="#ffffff"></rect></mask></defs></svg>