<svg xmlns="http://www.w3.org/2000/svg" version="1.1" xmlns:xlink="http://www.w3.org/1999/xlink" xmlns:svgjs="http://svgjs.com/svgjs" width="1440" height="889" preserveAspectRatio="none" viewBox="0 0 1440 889"><g mask="url(&quot;#SvgjsMask1543&quot;)" fill="none"><rect width="1440" height="889" x="0" y="0" fill="rgba(24, 31, 42, 1)"></rect><path d="M523.22 670.98L632.34 733.98L632.34 859.98L523.22 922.98L414.1 859.98L414.1 733.98zM959.71 -85.02L1068.83 -22.02L1068.83 103.98L959.71 166.98L850.59 103.98L850.59 -22.02zM1177.95 292.98L1287.08 355.98L1287.08 481.98L1177.95 544.98L1068.83 481.98L1068.83 355.98zM1287.08 859.98L1396.2 922.98L1396.2 1048.98L1287.08 1111.98L1177.95 1048.98L1177.95 922.98zM1396.2 292.98L1505.32 355.98L1505.32 481.98L1396.2 544.98L1287.08 481.98L1287.08 355.98zM1505.32 859.98L1614.44 922.98L1614.44 1048.98L1505.32 1111.98L1396.2 1048.98L1396.2 922.98z" stroke="rgba(197, 165, 233, 1)" stroke-width="2"></path><path d="M75.39 293.03L162 343.03L162 443.03L75.39 493.03L-11.22 443.03L-11.22 343.03zM75.39 593.03L162 643.03L162 743.03L75.39 793.03L-11.22 743.03L-11.22 643.03zM162 743.03L248.6 793.03L248.6 893.03L162 943.03L75.39 893.03L75.39 793.03zM421.81 -6.97L508.42 43.03L508.42 143.03L421.81 193.03L335.2 143.03L335.2 43.03zM508.42 443.03L595.02 493.03L595.02 593.03L508.42 643.03L421.81 593.03L421.81 493.03zM421.81 593.03L508.42 643.03L508.42 743.03L421.81 793.03L335.2 743.03L335.2 643.03zM681.63 443.03L768.23 493.03L768.23 593.03L681.63 643.03L595.02 593.03L595.02 493.03zM595.02 593.03L681.63 643.03L681.63 743.03L595.02 793.03L508.41 743.03L508.41 643.03zM854.84 143.03L941.44 193.03L941.44 293.03L854.84 343.03L768.23 293.03L768.23 193.03zM941.44 593.03L1028.05 643.03L1028.05 743.03L941.44 793.03L854.84 743.03L854.84 643.03zM1028.05 743.03L1114.65 793.03L1114.65 893.03L1028.05 943.03L941.44 893.03L941.44 793.03zM1114.65 -6.97L1201.26 43.03L1201.26 143.03L1114.65 193.03L1028.05 143.03L1028.05 43.03zM1201.26 443.03L1287.86 493.03L1287.86 593.03L1201.26 643.03L1114.65 593.03L1114.65 493.03zM1114.65 593.03L1201.26 643.03L1201.26 743.03L1114.65 793.03L1028.05 743.03L1028.05 643.03zM1547.68 143.03L1634.28 193.03L1634.28 293.03L1547.68 343.03L1461.07 293.03L1461.07 193.03zM1461.07 893.03L1547.68 943.03L1547.68 1043.03L1461.07 1093.03L1374.47 1043.03L1374.47 943.03z" stroke="rgba(101, 226, 217, 1)" stroke-width="2"></path></g><defs><mask id="SvgjsMask1543"><rect width="1440" height="889" fill="#ffffff"></rect></mask></defs></svg>