<svg xmlns="http://www.w3.org/2000/svg" version="1.1" xmlns:xlink="http://www.w3.org/1999/xlink" xmlns:svgjs="http://svgjs.com/svgjs" width="1440" height="889" preserveAspectRatio="none" viewBox="0 0 1440 889"><g mask="url(&quot;#SvgjsMask1639&quot;)" fill="none"><rect width="1440" height="889" x="0" y="0" fill="rgba(24, 31, 42, 1)"></rect><path d="M20.42 745.34L129.54 808.34L129.54 934.34L20.42 997.34L-88.7 934.34L-88.7 808.34zM347.79 178.34L456.91 241.34L456.91 367.34L347.79 430.34L238.66 367.34L238.66 241.34zM784.28 556.34L893.4 619.34L893.4 745.34L784.28 808.34L675.15 745.34L675.15 619.34z" stroke="rgba(197, 165, 233, 1)" stroke-width="2"></path><path d="M64.67 -71.59L151.28 -21.59L151.28 78.41L64.67 128.41L-21.94 78.41L-21.94 -21.59zM64.67 228.41L151.28 278.41L151.28 378.41L64.67 428.41L-21.94 378.41L-21.94 278.41zM64.67 828.41L151.28 878.41L151.28 978.41L64.67 1028.41L-21.94 978.41L-21.94 878.41zM411.09 -71.59L497.7 -21.59L497.7 78.41L411.09 128.41L324.49 78.41L324.49 -21.59zM497.7 678.41L584.3 728.41L584.3 828.41L497.7 878.41L411.09 828.41L411.09 728.41zM930.72 -71.59L1017.33 -21.59L1017.33 78.41L930.72 128.41L844.12 78.41L844.12 -21.59zM1017.33 78.41L1103.93 128.41L1103.93 228.41L1017.33 278.41L930.72 228.41L930.72 128.41zM930.72 228.41L1017.33 278.41L1017.33 378.41L930.72 428.41L844.12 378.41L844.12 278.41zM930.72 828.41L1017.33 878.41L1017.33 978.41L930.72 1028.41L844.12 978.41L844.12 878.41zM1277.14 -71.59L1363.75 -21.59L1363.75 78.41L1277.14 128.41L1190.54 78.41L1190.54 -21.59zM1363.75 378.41L1450.35 428.41L1450.35 528.41L1363.75 578.41L1277.14 528.41L1277.14 428.41zM1450.35 -71.59L1536.96 -21.59L1536.96 78.41L1450.35 128.41L1363.75 78.41L1363.75 -21.59zM1450.35 228.41L1536.96 278.41L1536.96 378.41L1450.35 428.41L1363.75 378.41L1363.75 278.41z" stroke="rgba(101, 226, 217, 1)" stroke-width="2"></path></g><defs><mask id="SvgjsMask1639"><rect width="1440" height="889" fill="#ffffff"></rect></mask></defs></svg>