<svg xmlns="http://www.w3.org/2000/svg" version="1.1" xmlns:xlink="http://www.w3.org/1999/xlink" xmlns:svgjs="http://svgjs.com/svgjs" width="1440" height="889" preserveAspectRatio="none" viewBox="0 0 1440 889"><g mask="url(&quot;#SvgjsMask1432&quot;)" fill="none"><rect width="1440" height="889" x="0" y="0" fill="rgba(24, 31, 42, 1)"></rect><path d="M47.41 -121.64L156.53 -58.64L156.53 67.36L47.41 130.36L-61.71 67.36L-61.71 -58.64zM156.53 445.36L265.65 508.36L265.65 634.36L156.53 697.36L47.41 634.36L47.41 508.36zM374.78 823.36L483.9 886.36L483.9 1012.36L374.78 1075.36L265.65 1012.36L265.65 886.36zM811.27 67.36L920.39 130.36L920.39 256.36L811.27 319.36L702.14 256.36L702.14 130.36zM702.14 634.36L811.27 697.36L811.27 823.36L702.14 886.36L593.02 823.36L593.02 697.36zM811.27 823.36L920.39 886.36L920.39 1012.36L811.27 1075.36L702.14 1012.36L702.14 886.36zM1138.63 -121.64L1247.76 -58.64L1247.76 67.36L1138.63 130.36L1029.51 67.36L1029.51 -58.64z" stroke="rgba(197, 165, 233, 1)" stroke-width="2"></path><path d="M53.36 -14.43L139.97 35.57L139.97 135.57L53.36 185.57L-33.25 135.57L-33.25 35.57zM399.78 -14.43L486.39 35.57L486.39 135.57L399.78 185.57L313.18 135.57L313.18 35.57zM746.2 285.57L832.81 335.57L832.81 435.57L746.2 485.57L659.6 435.57L659.6 335.57zM919.41 285.57L1006.02 335.57L1006.02 435.57L919.41 485.57L832.81 435.57L832.81 335.57zM1179.22 435.57L1265.83 485.57L1265.83 585.57L1179.22 635.57L1092.62 585.57L1092.62 485.57zM1092.62 885.57L1179.22 935.57L1179.22 1035.57L1092.62 1085.57L1006.01 1035.57L1006.01 935.57zM1265.83 885.57L1352.43 935.57L1352.43 1035.57L1265.83 1085.57L1179.22 1035.57L1179.22 935.57zM1439.04 585.57L1525.64 635.57L1525.64 735.57L1439.04 785.57L1352.43 735.57L1352.43 635.57z" stroke="rgba(101, 226, 217, 1)" stroke-width="2"></path></g><defs><mask id="SvgjsMask1432"><rect width="1440" height="889" fill="#ffffff"></rect></mask></defs></svg>